<?xml version="1.0" standalone="no"?>
<!DOCTYPE svg PUBLIC "-//W3C//DTD SVG 20010904//EN"
 "http://www.w3.org/TR/2001/REC-SVG-20010904/DTD/svg10.dtd">
<svg version="1.0" xmlns="http://www.w3.org/2000/svg"
 width="1287pt" height="1287pt" viewBox="0 0 1287 1287"
 preserveAspectRatio="xMidYMid meet">
<g transform="translate(0,1287) scale(0.1,-0.1)"
fill="#000000" stroke="none">
<path d="M6138 12865 c-1 -1 -55 -6 -118 -9 -63 -4 -131 -8 -150 -11 -19 -2
-66 -6 -105 -10 -38 -3 -83 -8 -100 -10 -16 -3 -66 -9 -110 -15 -44 -6 -91
-12 -105 -15 -14 -2 -41 -6 -60 -9 -19 -3 -73 -13 -120 -22 -47 -9 -96 -18
-110 -20 -59 -10 -226 -49 -365 -86 -872 -228 -1694 -644 -2406 -1219 -53 -43
-103 -84 -110 -91 -8 -7 -30 -26 -49 -42 -150 -123 -488 -459 -640 -636 -12
-14 -31 -36 -43 -50 -12 -14 -61 -72 -107 -130 -47 -58 -87 -107 -90 -110 -3
-3 -23 -30 -46 -60 -106 -142 -162 -221 -235 -334 -43 -66 -83 -125 -87 -131
-8 -10 -88 -144 -108 -180 -6 -11 -21 -38 -34 -60 -106 -185 -222 -414 -300
-595 -18 -41 -38 -88 -46 -105 -7 -16 -22 -55 -34 -85 -11 -30 -25 -64 -30
-75 -5 -11 -18 -47 -30 -80 -11 -33 -25 -69 -30 -80 -21 -47 -154 -483 -166
-545 -2 -14 -7 -31 -9 -39 -6 -14 -53 -220 -61 -261 -55 -288 -74 -409 -94
-595 -6 -55 -12 -116 -15 -136 -27 -228 -27 -905 0 -1154 2 -22 7 -67 10 -100
3 -33 7 -71 9 -85 2 -14 6 -50 10 -80 10 -84 16 -124 20 -147 3 -12 8 -43 12
-70 9 -61 12 -81 18 -101 3 -9 7 -34 10 -54 3 -21 10 -57 15 -80 6 -24 13 -59
16 -78 3 -19 8 -43 11 -52 3 -9 6 -25 8 -35 15 -73 86 -335 131 -477 81 -259
150 -440 267 -706 77 -174 243 -491 356 -680 101 -167 305 -467 409 -600 50
-65 254 -312 287 -348 226 -250 536 -552 682 -664 16 -12 31 -25 34 -28 13
-14 164 -133 235 -186 44 -32 84 -63 90 -67 53 -45 301 -208 495 -328 151 -93
536 -289 725 -369 55 -24 118 -51 140 -60 256 -113 922 -311 1160 -346 17 -2
48 -9 70 -14 34 -8 157 -29 205 -35 8 -1 67 -9 130 -18 63 -9 147 -19 185 -22
39 -3 81 -8 95 -10 124 -19 806 -27 1005 -12 155 12 255 22 335 32 105 14 133
17 224 31 133 20 389 70 511 100 55 14 110 27 122 30 47 9 275 78 413 124 219
73 417 150 609 237 159 72 488 240 551 281 14 9 44 27 67 39 243 131 753 502
1002 727 252 229 466 448 643 658 24 28 59 70 78 92 19 23 62 78 95 121 33 44
63 82 66 85 13 12 162 225 241 345 160 244 350 585 455 820 23 50 52 115 66
145 151 332 317 861 396 1265 17 83 33 166 36 185 3 19 8 42 10 50 2 8 6 35 9
60 3 25 8 54 10 65 2 11 7 47 10 80 4 33 9 71 11 85 3 24 13 122 20 200 27
292 26 979 0 1142 -2 13 -6 52 -9 88 -29 320 -112 750 -216 1115 -59 206 -166
514 -225 650 -7 17 -26 62 -43 100 -101 241 -241 516 -369 729 -29 49 -53 91
-53 94 0 4 -251 379 -293 437 -74 102 -204 266 -302 381 -190 222 -492 528
-675 684 -14 12 -36 30 -49 41 -76 66 -240 196 -331 263 -58 43 -113 84 -122
91 -9 8 -88 61 -175 118 -537 355 -1114 624 -1717 802 -233 68 -374 102 -691
165 -66 13 -306 48 -375 55 -30 3 -71 7 -90 10 -34 4 -121 13 -225 22 -59 5
-742 13 -747 8z m542 -880 c184 -8 259 -13 390 -29 14 -2 54 -7 90 -11 36 -4
74 -9 85 -11 11 -3 37 -7 57 -9 21 -2 75 -11 120 -20 46 -9 97 -19 113 -21
120 -20 431 -103 640 -171 242 -79 625 -238 790 -328 22 -12 74 -40 115 -62
201 -108 445 -261 620 -391 47 -35 95 -71 108 -80 13 -9 32 -24 42 -32 19 -16
24 -20 105 -85 83 -67 90 -72 236 -205 254 -230 502 -507 718 -800 39 -52 74
-100 78 -105 5 -6 26 -36 47 -68 l39 -59 -1438 -1438 c-792 -792 -1440 -1438
-1442 -1436 -1 1 -3 167 -3 368 -1 207 -5 382 -11 404 -59 232 -278 374 -510
332 -165 -30 -305 -166 -344 -333 -16 -66 -18 -1852 -3 -1936 29 -160 157
-297 317 -338 65 -16 140 -17 1008 -16 1047 2 982 -2 1099 73 195 127 256 384
139 587 -39 68 -114 135 -195 174 l-75 36 -408 5 -407 5 1355 1355 c745 745
1357 1352 1360 1348 33 -32 263 -683 290 -818 2 -8 11 -44 20 -80 10 -36 24
-94 32 -130 8 -36 16 -74 19 -85 6 -27 11 -54 24 -125 5 -33 13 -72 15 -87 9
-47 34 -228 40 -280 3 -28 7 -68 9 -89 5 -45 15 -170 22 -264 5 -83 5 -531 0
-590 -3 -25 -7 -88 -11 -140 -4 -52 -8 -108 -10 -125 -2 -16 -7 -55 -10 -85
-70 -667 -311 -1423 -647 -2028 -60 -109 -167 -290 -180 -307 -5 -5 -33 -48
-64 -94 -46 -71 -126 -186 -156 -226 -29 -38 -251 -316 -273 -340 -279 -317
-543 -562 -862 -802 -144 -110 -357 -253 -501 -338 -169 -100 -405 -223 -562
-292 -30 -13 -64 -28 -75 -33 -214 -98 -639 -239 -925 -305 -108 -26 -221 -49
-285 -59 -11 -2 -33 -6 -50 -9 -16 -4 -46 -9 -65 -11 -19 -3 -64 -9 -100 -15
-36 -6 -94 -13 -130 -17 -36 -3 -78 -8 -95 -9 -16 -2 -70 -7 -120 -10 -49 -4
-108 -9 -130 -10 -51 -5 -533 -5 -600 0 -27 1 -86 6 -130 10 -44 3 -99 8 -122
10 -71 6 -263 31 -383 51 -32 5 -311 61 -335 68 -5 1 -26 6 -45 10 -98 22
-333 91 -475 140 -682 232 -1293 582 -1849 1059 -151 130 -400 378 -545 543
-59 67 -274 338 -316 398 -22 31 -58 82 -81 113 l-41 56 1446 1446 1446 1446
5 -385 c4 -342 7 -391 24 -435 95 -257 374 -367 619 -245 56 28 138 107 172
164 60 103 58 54 60 1086 2 1039 4 1007 -59 1114 -60 103 -194 195 -306 211
-77 11 -1860 7 -1917 -4 -236 -47 -396 -299 -336 -530 44 -167 182 -299 343
-329 25 -4 210 -8 413 -8 202 1 367 -2 367 -7 0 -10 -2708 -2717 -2719 -2717
-5 0 -11 8 -14 18 -3 9 -36 94 -75 187 -38 94 -79 202 -92 240 -12 39 -26 79
-31 90 -29 71 -148 509 -164 609 -3 17 -8 38 -11 47 -2 10 -6 30 -9 45 -2 16
-10 67 -18 114 -9 47 -18 109 -22 139 -4 30 -8 63 -10 73 -4 17 -11 77 -20
168 -31 304 -35 738 -10 1010 12 122 16 166 20 190 2 14 7 52 11 85 3 33 8 69
10 80 3 11 7 40 10 65 3 25 19 113 35 195 148 746 439 1442 868 2070 51 75
228 314 240 325 3 3 24 28 46 55 22 28 44 55 50 61 5 7 35 40 65 75 188 215
416 438 625 611 86 71 262 209 301 236 11 7 53 36 95 66 507 358 1152 654
1764 810 158 40 377 87 475 102 19 3 46 7 60 9 155 24 155 24 306 40 110 11
157 14 324 21 91 3 166 7 167 8 3 2 164 -2 313 -9z"/>
</g>
</svg>